# xmcd
#
# Track frame offsets: 
#        150
#        16701
#        36103
#        55561
#        70932
#        88824
#        108158
#        124741
#        140446
#        154382
#        169728
#        189776
#        204578
#        233691
#
# Disc length: 3864 seconds
#
# Revision: 1
# Processed by: cddbd v1.5PL3 Copyright (c) Steve Scherf et al.
# Submitted via: ExactAudioCopy v0.95a3
#
DISCID=af0f160e
DTITLE=Marcel - You, Me And The Windshield
DYEAR=2003
DGENRE=Country
TTITLE0=Country Rock Star
TTITLE1=Tennessee
TTITLE2=Annie Devine
TTITLE3=Missing You
TTITLE4=The Working Day
TTITLE5=I Won't Hold You Down 
TTITLE6=Take It
TTITLE7=Nothin' To Lose
TTITLE8=You, Me And The Windshield
TTITLE9=Shadow
TTITLE10=Holding On To Letting Go
TTITLE11=Perfect Situation
TTITLE12=This Old Diesel
TTITLE13=DATA
EXTD=
EXTT0=
EXTT1=
EXTT2=
EXTT3=
EXTT4=
EXTT5=
EXTT6=
EXTT7=
EXTT8=
EXTT9=
EXTT10=
EXTT11=
EXTT12=
EXTT13=
PLAYORDER=
